<?xml version="1.0" encoding="utf-8"?>
<!-- Generator: Adobe Illustrator 27.5.0, SVG Export Plug-In . SVG Version: 6.00 Build 0)  -->
<svg version="1.1" id="Layer_1" xmlns="http://www.w3.org/2000/svg" xmlns:xlink="http://www.w3.org/1999/xlink" x="0px" y="0px"
	 viewBox="0 0 100 100" style="enable-background:new 0 0 100 100;" xml:space="preserve">
<style type="text/css">
	.st0{fill:#010101;}
</style>
<path class="st0" d="M54.06,34.38c3.23-5.08,5.7-10.57,7.37-16.33C68.21,32.59,82.95,42.69,100,42.69V57.5c-0.05,0-0.1,0-0.14,0
	c-23.45,0-42.54,19.11-42.54,42.6H42.53v-0.01c0-21.45,11.81-40.18,29.25-50.03C64.85,46.1,58.81,40.75,54.06,34.38z"/>
<path class="st0" d="M38.5,81.91C31.95,68.01,18.11,58.2,1.95,57.46C1.3,57.48,0.65,57.5,0,57.5l0-14.88c0.65,0,1.3,0.01,1.95,0.03
	c10.62-0.48,20.55-4.85,28.13-12.43c8.04-8.04,12.45-18.75,12.45-30.12l14.79,0c0,15.33-5.96,29.74-16.79,40.59
	c-3.71,3.72-7.84,6.86-12.29,9.39c6.91,3.93,12.93,9.26,17.67,15.6C42.72,70.66,40.21,76.11,38.5,81.91z"/>
</svg>
